<mxfile host="app.diagrams.net" modified="2024-03-28T03:19:22.058Z" agent="Mozilla/5.0 (Windows NT 10.0; Win64; x64) AppleWebKit/537.36 (KHTML, like Gecko) Chrome/120.0.0.0 Safari/537.36" etag="rfBnQyzxbkK2xgcXvVTe" version="24.2.0" type="github">
  <diagram name="Page-1" id="2YBvvXClWsGukQMizWep">
    <mxGraphModel dx="1434" dy="746" grid="1" gridSize="10" guides="1" tooltips="1" connect="1" arrows="1" fold="1" page="1" pageScale="1" pageWidth="850" pageHeight="1100" math="0" shadow="0">
      <root>
        <mxCell id="0" />
        <mxCell id="1" parent="0" />
        <mxCell id="aM9ryv3xv72pqoxQDRHE-5" value="ProcedureDefinition&lt;div&gt;Resource&lt;/div&gt;" style="shape=umlLifeline;perimeter=lifelinePerimeter;whiteSpace=wrap;html=1;container=0;dropTarget=0;collapsible=0;recursiveResize=0;outlineConnect=0;portConstraint=eastwest;newEdgeStyle={&quot;edgeStyle&quot;:&quot;elbowEdgeStyle&quot;,&quot;elbow&quot;:&quot;vertical&quot;,&quot;curved&quot;:0,&quot;rounded&quot;:0};" parent="1" vertex="1">
          <mxGeometry x="220" y="40" width="110" height="480" as="geometry" />
        </mxCell>
        <mxCell id="EvaB3Hb0O-eQsP6EGANk-2" value="" style="shape=umlActor;verticalLabelPosition=bottom;verticalAlign=top;html=1;outlineConnect=0;" vertex="1" parent="1">
          <mxGeometry x="160" y="20" width="30" height="60" as="geometry" />
        </mxCell>
        <mxCell id="EvaB3Hb0O-eQsP6EGANk-5" value="" style="endArrow=none;dashed=1;html=1;rounded=0;strokeWidth=1;" edge="1" parent="1">
          <mxGeometry width="50" height="50" relative="1" as="geometry">
            <mxPoint x="175" y="520" as="sourcePoint" />
            <mxPoint x="174.5" y="80" as="targetPoint" />
          </mxGeometry>
        </mxCell>
        <mxCell id="EvaB3Hb0O-eQsP6EGANk-6" value="SecurityInvoker&lt;div&gt;Base&lt;/div&gt;" style="shape=umlLifeline;perimeter=lifelinePerimeter;whiteSpace=wrap;html=1;container=0;dropTarget=0;collapsible=0;recursiveResize=0;outlineConnect=0;portConstraint=eastwest;newEdgeStyle={&quot;edgeStyle&quot;:&quot;elbowEdgeStyle&quot;,&quot;elbow&quot;:&quot;vertical&quot;,&quot;curved&quot;:0,&quot;rounded&quot;:0};" vertex="1" parent="1">
          <mxGeometry x="340" y="40" width="110" height="480" as="geometry" />
        </mxCell>
        <mxCell id="EvaB3Hb0O-eQsP6EGANk-7" value="ProcedureDefinition&lt;div&gt;ServiceForWeb&lt;/div&gt;" style="shape=umlLifeline;perimeter=lifelinePerimeter;whiteSpace=wrap;html=1;container=0;dropTarget=0;collapsible=0;recursiveResize=0;outlineConnect=0;portConstraint=eastwest;newEdgeStyle={&quot;edgeStyle&quot;:&quot;elbowEdgeStyle&quot;,&quot;elbow&quot;:&quot;vertical&quot;,&quot;curved&quot;:0,&quot;rounded&quot;:0};" vertex="1" parent="1">
          <mxGeometry x="460" y="40" width="140" height="480" as="geometry" />
        </mxCell>
        <mxCell id="EvaB3Hb0O-eQsP6EGANk-8" value="ProcedureDefinition&lt;div&gt;serviceBeanLocal&lt;/div&gt;" style="shape=umlLifeline;perimeter=lifelinePerimeter;whiteSpace=wrap;html=1;container=0;dropTarget=0;collapsible=0;recursiveResize=0;outlineConnect=0;portConstraint=eastwest;newEdgeStyle={&quot;edgeStyle&quot;:&quot;elbowEdgeStyle&quot;,&quot;elbow&quot;:&quot;vertical&quot;,&quot;curved&quot;:0,&quot;rounded&quot;:0};" vertex="1" parent="1">
          <mxGeometry x="610" y="40" width="110" height="480" as="geometry" />
        </mxCell>
        <mxCell id="EvaB3Hb0O-eQsP6EGANk-9" value="ProcedureDefinition&lt;div&gt;CacheService&lt;/div&gt;" style="shape=umlLifeline;perimeter=lifelinePerimeter;whiteSpace=wrap;html=1;container=0;dropTarget=0;collapsible=0;recursiveResize=0;outlineConnect=0;portConstraint=eastwest;newEdgeStyle={&quot;edgeStyle&quot;:&quot;elbowEdgeStyle&quot;,&quot;elbow&quot;:&quot;vertical&quot;,&quot;curved&quot;:0,&quot;rounded&quot;:0};" vertex="1" parent="1">
          <mxGeometry x="730" y="40" width="110" height="480" as="geometry" />
        </mxCell>
        <mxCell id="EvaB3Hb0O-eQsP6EGANk-10" value="DicomPrinterConfiguration&lt;div&gt;ServiceBeanLocal&lt;/div&gt;" style="shape=umlLifeline;perimeter=lifelinePerimeter;whiteSpace=wrap;html=1;container=0;dropTarget=0;collapsible=0;recursiveResize=0;outlineConnect=0;portConstraint=eastwest;newEdgeStyle={&quot;edgeStyle&quot;:&quot;elbowEdgeStyle&quot;,&quot;elbow&quot;:&quot;vertical&quot;,&quot;curved&quot;:0,&quot;rounded&quot;:0};" vertex="1" parent="1">
          <mxGeometry x="850" y="40" width="150" height="480" as="geometry" />
        </mxCell>
        <mxCell id="EvaB3Hb0O-eQsP6EGANk-12" value="" style="rounded=0;whiteSpace=wrap;html=1;" vertex="1" parent="1">
          <mxGeometry x="270" y="100" width="10" height="390" as="geometry" />
        </mxCell>
        <mxCell id="EvaB3Hb0O-eQsP6EGANk-13" value="" style="endArrow=classic;html=1;rounded=0;" edge="1" parent="1">
          <mxGeometry width="50" height="50" relative="1" as="geometry">
            <mxPoint x="175.5" y="120" as="sourcePoint" />
            <mxPoint x="270" y="120" as="targetPoint" />
          </mxGeometry>
        </mxCell>
        <mxCell id="EvaB3Hb0O-eQsP6EGANk-14" value="request" style="text;html=1;align=center;verticalAlign=middle;resizable=0;points=[];autosize=1;strokeColor=none;fillColor=none;" vertex="1" parent="1">
          <mxGeometry x="190" y="98" width="60" height="30" as="geometry" />
        </mxCell>
        <mxCell id="EvaB3Hb0O-eQsP6EGANk-20" value="" style="rounded=0;whiteSpace=wrap;html=1;" vertex="1" parent="1">
          <mxGeometry x="390" y="118" width="10" height="40" as="geometry" />
        </mxCell>
        <mxCell id="EvaB3Hb0O-eQsP6EGANk-21" value="" style="rounded=0;whiteSpace=wrap;html=1;" vertex="1" parent="1">
          <mxGeometry x="525" y="148" width="10" height="312" as="geometry" />
        </mxCell>
        <mxCell id="EvaB3Hb0O-eQsP6EGANk-22" value="" style="rounded=0;whiteSpace=wrap;html=1;" vertex="1" parent="1">
          <mxGeometry x="660" y="180" width="10" height="160" as="geometry" />
        </mxCell>
        <mxCell id="EvaB3Hb0O-eQsP6EGANk-23" value="" style="rounded=0;whiteSpace=wrap;html=1;" vertex="1" parent="1">
          <mxGeometry x="780" y="260" width="10" height="40" as="geometry" />
        </mxCell>
        <mxCell id="EvaB3Hb0O-eQsP6EGANk-24" value="" style="rounded=0;whiteSpace=wrap;html=1;" vertex="1" parent="1">
          <mxGeometry x="920" y="340" width="10" height="70" as="geometry" />
        </mxCell>
        <mxCell id="EvaB3Hb0O-eQsP6EGANk-26" value="" style="endArrow=classic;html=1;rounded=0;" edge="1" parent="1">
          <mxGeometry width="50" height="50" relative="1" as="geometry">
            <mxPoint x="280" y="140" as="sourcePoint" />
            <mxPoint x="390" y="140" as="targetPoint" />
          </mxGeometry>
        </mxCell>
        <mxCell id="EvaB3Hb0O-eQsP6EGANk-28" value="check perm" style="text;html=1;align=center;verticalAlign=middle;resizable=0;points=[];autosize=1;strokeColor=none;fillColor=none;" vertex="1" parent="1">
          <mxGeometry x="275" y="118" width="90" height="30" as="geometry" />
        </mxCell>
        <mxCell id="EvaB3Hb0O-eQsP6EGANk-32" value="" style="endArrow=classic;html=1;rounded=0;entryX=-0.2;entryY=0.096;entryDx=0;entryDy=0;entryPerimeter=0;" edge="1" parent="1" target="EvaB3Hb0O-eQsP6EGANk-21">
          <mxGeometry width="50" height="50" relative="1" as="geometry">
            <mxPoint x="280" y="178" as="sourcePoint" />
            <mxPoint x="510" y="178" as="targetPoint" />
          </mxGeometry>
        </mxCell>
        <mxCell id="EvaB3Hb0O-eQsP6EGANk-33" value="save" style="text;html=1;align=center;verticalAlign=middle;resizable=0;points=[];autosize=1;strokeColor=none;fillColor=none;" vertex="1" parent="1">
          <mxGeometry x="395" y="158" width="50" height="30" as="geometry" />
        </mxCell>
        <mxCell id="EvaB3Hb0O-eQsP6EGANk-36" value="validate auto-created&lt;br&gt;calculate deletedEpcs&lt;div&gt;dto to bean&lt;/div&gt;" style="text;html=1;align=center;verticalAlign=middle;resizable=0;points=[];autosize=1;strokeColor=none;fillColor=none;" vertex="1" parent="1">
          <mxGeometry x="395" y="210" width="140" height="60" as="geometry" />
        </mxCell>
        <mxCell id="EvaB3Hb0O-eQsP6EGANk-38" value="" style="endArrow=classic;html=1;rounded=0;entryX=0.95;entryY=1;entryDx=0;entryDy=0;entryPerimeter=0;" edge="1" parent="1" target="EvaB3Hb0O-eQsP6EGANk-39">
          <mxGeometry width="50" height="50" relative="1" as="geometry">
            <mxPoint x="540" y="200" as="sourcePoint" />
            <mxPoint x="660" y="200" as="targetPoint" />
          </mxGeometry>
        </mxCell>
        <mxCell id="EvaB3Hb0O-eQsP6EGANk-39" value="saveAndMapExternal&lt;div&gt;ProcedureCodes&lt;/div&gt;" style="text;html=1;align=center;verticalAlign=middle;resizable=0;points=[];autosize=1;strokeColor=none;fillColor=none;" vertex="1" parent="1">
          <mxGeometry x="525" y="160" width="140" height="40" as="geometry" />
        </mxCell>
        <mxCell id="EvaB3Hb0O-eQsP6EGANk-41" value="add history&lt;br&gt;handle epcs&lt;div&gt;auditing&lt;/div&gt;" style="text;html=1;align=center;verticalAlign=middle;resizable=0;points=[];autosize=1;strokeColor=none;fillColor=none;" vertex="1" parent="1">
          <mxGeometry x="665" y="200" width="90" height="60" as="geometry" />
        </mxCell>
        <mxCell id="EvaB3Hb0O-eQsP6EGANk-42" value="" style="endArrow=classic;html=1;rounded=0;" edge="1" parent="1">
          <mxGeometry width="50" height="50" relative="1" as="geometry">
            <mxPoint x="670" y="280" as="sourcePoint" />
            <mxPoint x="780" y="280" as="targetPoint" />
          </mxGeometry>
        </mxCell>
        <mxCell id="EvaB3Hb0O-eQsP6EGANk-43" value="&lt;font style=&quot;font-size: 12px;&quot;&gt;notify&lt;/font&gt;" style="edgeLabel;html=1;align=center;verticalAlign=middle;resizable=0;points=[];" vertex="1" connectable="0" parent="EvaB3Hb0O-eQsP6EGANk-42">
          <mxGeometry x="-0.1273" y="4" relative="1" as="geometry">
            <mxPoint x="2" y="-6" as="offset" />
          </mxGeometry>
        </mxCell>
        <mxCell id="EvaB3Hb0O-eQsP6EGANk-46" value="" style="endArrow=classic;html=1;rounded=0;exitX=-0.3;exitY=0.869;exitDx=0;exitDy=0;exitPerimeter=0;" edge="1" parent="1" source="EvaB3Hb0O-eQsP6EGANk-22">
          <mxGeometry width="50" height="50" relative="1" as="geometry">
            <mxPoint x="650" y="320" as="sourcePoint" />
            <mxPoint x="535" y="320" as="targetPoint" />
          </mxGeometry>
        </mxCell>
        <mxCell id="EvaB3Hb0O-eQsP6EGANk-47" value="return" style="text;html=1;align=center;verticalAlign=middle;resizable=0;points=[];autosize=1;strokeColor=none;fillColor=none;" vertex="1" parent="1">
          <mxGeometry x="565" y="298" width="50" height="30" as="geometry" />
        </mxCell>
        <mxCell id="EvaB3Hb0O-eQsP6EGANk-48" value="" style="endArrow=classic;html=1;rounded=0;entryX=0;entryY=0.25;entryDx=0;entryDy=0;" edge="1" parent="1" target="EvaB3Hb0O-eQsP6EGANk-24">
          <mxGeometry width="50" height="50" relative="1" as="geometry">
            <mxPoint x="540" y="360" as="sourcePoint" />
            <mxPoint x="910" y="360" as="targetPoint" />
            <Array as="points">
              <mxPoint x="580" y="360" />
            </Array>
          </mxGeometry>
        </mxCell>
        <mxCell id="EvaB3Hb0O-eQsP6EGANk-51" value="" style="endArrow=classic;html=1;rounded=0;" edge="1" parent="1">
          <mxGeometry width="50" height="50" relative="1" as="geometry">
            <mxPoint x="920" y="390" as="sourcePoint" />
            <mxPoint x="534" y="391" as="targetPoint" />
          </mxGeometry>
        </mxCell>
        <mxCell id="EvaB3Hb0O-eQsP6EGANk-52" value="setSetting4ProcedureDefnition" style="text;html=1;align=center;verticalAlign=middle;resizable=0;points=[];autosize=1;strokeColor=none;fillColor=none;" vertex="1" parent="1">
          <mxGeometry x="640" y="338" width="190" height="30" as="geometry" />
        </mxCell>
        <mxCell id="EvaB3Hb0O-eQsP6EGANk-53" value="return" style="text;html=1;align=center;verticalAlign=middle;resizable=0;points=[];autosize=1;strokeColor=none;fillColor=none;" vertex="1" parent="1">
          <mxGeometry x="705" y="368" width="50" height="30" as="geometry" />
        </mxCell>
        <mxCell id="EvaB3Hb0O-eQsP6EGANk-54" value="bean to dto" style="text;html=1;align=center;verticalAlign=middle;resizable=0;points=[];autosize=1;strokeColor=none;fillColor=none;" vertex="1" parent="1">
          <mxGeometry x="535" y="410" width="80" height="30" as="geometry" />
        </mxCell>
        <mxCell id="EvaB3Hb0O-eQsP6EGANk-55" value="" style="endArrow=classic;html=1;rounded=0;entryX=1;entryY=0.25;entryDx=0;entryDy=0;" edge="1" parent="1">
          <mxGeometry width="50" height="50" relative="1" as="geometry">
            <mxPoint x="525" y="440" as="sourcePoint" />
            <mxPoint x="280" y="439.5" as="targetPoint" />
          </mxGeometry>
        </mxCell>
        <mxCell id="EvaB3Hb0O-eQsP6EGANk-56" value="" style="endArrow=classic;html=1;rounded=0;" edge="1" parent="1">
          <mxGeometry width="50" height="50" relative="1" as="geometry">
            <mxPoint x="270" y="470" as="sourcePoint" />
            <mxPoint x="175" y="470" as="targetPoint" />
          </mxGeometry>
        </mxCell>
        <mxCell id="EvaB3Hb0O-eQsP6EGANk-57" value="return" style="text;html=1;align=center;verticalAlign=middle;resizable=0;points=[];autosize=1;strokeColor=none;fillColor=none;" vertex="1" parent="1">
          <mxGeometry x="345" y="408" width="50" height="30" as="geometry" />
        </mxCell>
        <mxCell id="EvaB3Hb0O-eQsP6EGANk-58" value="response" style="text;html=1;align=center;verticalAlign=middle;resizable=0;points=[];autosize=1;strokeColor=none;fillColor=none;" vertex="1" parent="1">
          <mxGeometry x="195" y="448" width="70" height="30" as="geometry" />
        </mxCell>
      </root>
    </mxGraphModel>
  </diagram>
</mxfile>
